PathFileType	4	(X/Y/Z)	E:\Qualisys_Data\Carbon_Farble_Plate\Data\Amateur_Runner\S1\T3\S1T3V22_c3d.trc
DataRate	CameraRate	NumFrames	NumMarkers	Units	OrigDataRate	OrigDataStartFrame	OrigNumFrames
200.000000	200.000000	4	39	mm	200.000000	0	297
Frame#	Time	LSHO			RSHO			LICST			RICST			LASIS			LHEEL			RASIS			LTROC			RTROC			SACR			LTH1			LSK4			LTH2			LTH3			RHM5			LSK2			LTH4			RTH1			LTOE			RTH2			RTH3			RTH4			LLEP			RLEP			LSK1			LSK3			RSK1			LHM5			RSK2			LFT1			RSK3			RSK4			LLME			RLME			RTOE			RHEEL			RFT1			RFT2			LFT2			
		X1	Y1	Z1	X2	Y2	Z2	X3	Y3	Z3	X4	Y4	Z4	X5	Y5	Z5	X6	Y6	Z6	X7	Y7	Z7	X8	Y8	Z8	X9	Y9	Z9	X10	Y10	Z10	X11	Y11	Z11	X12	Y12	Z12	X13	Y13	Z13	X14	Y14	Z14	X15	Y15	Z15	X16	Y16	Z16	X17	Y17	Z17	X18	Y18	Z18	X19	Y19	Z19	X20	Y20	Z20	X21	Y21	Z21	X22	Y22	Z22	X23	Y23	Z23	X24	Y24	Z24	X25	Y25	Z25	X26	Y26	Z26	X27	Y27	Z27	X28	Y28	Z28	X29	Y29	Z29	X30	Y30	Z30	X31	Y31	Z31	X32	Y32	Z32	X33	Y33	Z33	X34	Y34	Z34	X35	Y35	Z35	X36	Y36	Z36	X37	Y37	Z37	X38	Y38	Z38	X39	Y39	Z39	

1	0	-3119.3115234375	1540.237182617188	-494.0237121582031	-3214.038818359375	1525.900268554688	-187.0680084228516	-3180.331787109375	1060.131225585938	-489.0501708984375	-3194.21826171875	1084.047729492188	-193.6777648925781	-3139.8662109375	1016.864990234375	-463.4632568359375	-3802.158447265625	418.2863159179688	-386.5253295898438	-3155.144775390625	1036.800659179688	-201.0069122314453	-3270.3134765625	956.7445678710938	-506.2162780761719	-3252.943359375	944.9904174804688	-167.6856689453125	-3304.372314453125	1092.838134765625	-341.4872741699219	-3208.614501953125	772.1630859375	-467.7656860351562	-3675.082763671875	476.30322265625	-417.3658447265625	-3280.0078125	794.74951171875	-502.4642944335938	-3249.017822265625	676.9005126953125	-450.981201171875	-2768.23486328125	186.5643768310547	-189.8707122802734	-3585.378173828125	514.3661499023438	-454.6786804199219	-3324.084228515625	705.9528198242188	-478.1427307128906	-3081.48046875	871.3779907226562	-189.7595672607422	-3738.439208984375	175.623779296875	-365.8331604003906	-3144.481201171875	830.7098388671875	-158.7212829589844	-3029.4111328125	783.4130859375	-192.4987182617188	-3100.011962890625	743.5497436523438	-175.6636352539062	-3370.06689453125	558.894775390625	-442.2605590820312	-3001.04345703125	608.6174926757812	-211.7523040771484	-3551.616943359375	439.8410034179688	-442.7662353515625	-3645.76513671875	402.6092529296875	-436.757568359375	-2957.4248046875	423.6146240234375	-187.9872589111328	-3785.007080078125	228.2550354003906	-427.7698364257812	-3035.721923828125	404.713623046875	-206.6703033447266	-3823.082275390625	405.4321899414062	-351.272216796875	-2929.51416015625	328.2069091796875	-201.2296295166016	-3003.40185546875	310.4459533691406	-227.9492645263672	-3764.480712890625	373.6174926757812	-429.5657043457031	-2917.978515625	188.0097503662109	-206.1953125	-2728.372314453125	229.5420684814453	-260.6181335449219	-2957.2216796875	118.9695129394531	-251.7485198974609	-2935.49951171875	104.5024871826172	-284.8222961425781	-2943.78564453125	97.82392883300781	-232.9279022216797	-3833.795166015625	400.7660522460938	-402.6521606445312
2	0.005	-3097.089111328125	1539.720581054688	-492.8499755859375	-3191.8896484375	1524.781372070312	-185.713623046875	-3158.851318359375	1059.259887695312	-490.1164245605469	-3173.010009765625	1083.427490234375	-193.8902435302734	-3118.4541015625	1016.674255371094	-463.8281860351562	-3781.23779296875	428.3050537109375	-386.5069274902344	-3134.266357421875	1036.206909179688	-200.5514984130859	-3247.82275390625	955.2283325195312	-506.5030212402344	-3231.71826171875	943.7664184570312	-168.0180511474609	-3283.0634765625	1091.622314453125	-341.9287719726562	-3185.057373046875	770.5653686523438	-466.8254699707031	-3651.412109375	482.2050476074219	-416.8456115722656	-3256.208251953125	793.3626098632812	-502.2725219726562	-3223.550048828125	675.7071533203125	-450.9237365722656	-2742.693603515625	187.8990783691406	-190.3583831787109	-3560.734375	517.8694458007812	-454.0238342285156	-3298.903564453125	703.46875	-477.7802429199219	-3061.926025390625	866.3939819335938	-189.6538696289062	-3722.148681640625	185.1683807373047	-365.5853576660156	-3127.2978515625	826.9150390625	-157.8283081054688	-3011.802978515625	777.1224975585938	-192.8984985351562	-3080.264892578125	738.4344482421875	-173.3820495605469	-3344.727294921875	556.7894897460938	-442.2120971679688	-2982.632568359375	604.8590087890625	-212.172607421875	-3528.5986328125	441.0173645019531	-442.4534301757812	-3623.722412109375	407.8992309570312	-436.2247009277344	-2935.734619140625	422.25927734375	-187.3742828369141	-3767.833740234375	238.6720581054688	-427.48095703125	-3013.662353515625	401.3735046386719	-207.1068725585938	-3800.63916015625	416.4090270996094	-350.9548034667969	-2907.0673828125	326.9384155273438	-201.4338531494141	-2980.46923828125	308.2067565917969	-228.459716796875	-3744.749267578125	382.9438781738281	-429.5834350585938	-2892.683349609375	186.7671051025391	-205.4901428222656	-2703.534912109375	230.2817535400391	-261.7189636230469	-2931.581298828125	117.5606994628906	-251.3018951416016	-2909.9169921875	103.2668228149414	-284.8684997558594	-2916.686279296875	95.76859283447266	-232.4059143066406	-3813.286376953125	411.8462219238281	-402.2940673828125
3	0.01	-3075.498046875	1539.0361328125	-491.4459838867188	-3170.127685546875	1523.18310546875	-184.2788391113281	-3137.537841796875	1058.455078125	-490.0802307128906	-3151.90869140625	1083.159545898438	-194.3653106689453	-3096.35498046875	1016.057250976562	-463.4203186035156	-3758.26513671875	438.2693481445312	-385.1249694824219	-3112.25927734375	1035.9638671875	-201.3652954101562	-3225.1923828125	953.2442626953124	-506.9072265625	-3210.541015625	942.1622314453124	-168.449951171875	-3262.67236328125	1090.8642578125	-343.3004455566406	-3160.343505859375	769.8289184570312	-467.2796325683594	-3630.8515625	492.6963500976562	-416.5693359375	-3231.740234375	791.3358764648438	-501.8823547363281	-3198.825439453125	673.8405151367188	-450.94140625	-2719.102294921875	187.7627563476562	-191.0314025878906	-3536.50732421875	521.980224609375	-454.1560363769531	-3273.830322265625	701.2429809570312	-477.8946228027344	-3042.490478515625	860.240234375	-190.1719055175781	-3705.378173828125	192.8552551269531	-365.6156616210938	-3107.154296875	823.0074462890625	-157.6501617431641	-2993.983154296875	770.4467163085938	-192.7408447265625	-3063.7021484375	733.2025146484375	-171.8617553710938	-3318.55615234375	553.9221801757812	-442.2670288085938	-2964.66943359375	601.168701171875	-212.2345428466797	-3505.499755859375	444.0032348632812	-441.5357360839844	-3603.133544921875	413.56201171875	-435.9725952148438	-2915.273681640625	420.4545288085938	-188.7981262207031	-3751.063232421875	247.9319152832031	-426.8674011230469	-2992.9599609375	398.2291259765625	-206.2917938232422	-3777.2724609375	427.28515625	-349.8492126464844	-2883.734130859375	325.51611328125	-201.291015625	-2957.984619140625	305.0074462890625	-228.4115142822266	-3723.820068359375	392.5062561035156	-428.9604797363281	-2869.5966796875	185.5632476806641	-205.997802734375	-2680.88037109375	230.6946563720703	-262.2813415527344	-2906.873046875	115.2306442260742	-250.6305999755859	-2885.781982421875	101.1692352294922	-284.3177795410156	-2892.9287109375	94.60997009277344	-231.9788818359375	-3791.27294921875	423.0835266113281	-401.5267028808594
4	0.015	-3053.177734375	1537.945556640625	-490.271484375	-3148.8330078125	1521.742309570312	-183.7624359130859	-3115.733642578125	1057.176635742188	-490.1254272460938	-3130.2607421875	1082.292114257812	-194.6638336181641	-3075.12646484375	1015.159851074219	-463.3887634277344	-3733.80712890625	447.3994750976562	-384.4859619140625	-3091.70166015625	1035.540405273438	-201.8271484375	-3202.32275390625	951.4296264648438	-507.1849975585938	-3189.244384765625	940.3368530273438	-169.0672912597656	-3241.221435546875	1088.80810546875	-343.2629699707031	-3135.75732421875	767.3494873046875	-466.135986328125	-3605.233154296875	496.7420043945312	-415.8746948242188	-3207.519287109375	788.3837890625	-502.0645446777344	-3173.182373046875	671.7376098632812	-451.2492370605469	-2697.861572265625	187.3570861816406	-191.3966369628906	-3510.774658203125	524.6751098632812	-453.6427917480469	-3248.381591796875	697.8797607421875	-478.009033203125	-3022.765869140625	855.4796752929688	-190.4977569580078	-3688.431884765625	202.4726104736328	-365.4779357910156	-3089.266845703125	819.594970703125	-158.1897888183594	-2976.65380859375	764.4505004882812	-193.1377868652344	-3047.57861328125	728.790283203125	-171.1850280761719	-3292.593505859375	551.0250244140625	-442.7349548339844	-2946.50390625	597.41650390625	-212.7046813964844	-3482.053955078125	446.3365783691406	-441.670166015625	-3579.99755859375	418.4730834960938	-435.5540466308594	-2894.47216796875	417.6858520507812	-189.0090484619141	-3731.241455078125	257.3637084960938	-426.0567626953125	-2973.309814453125	396.1474609375	-207.2506866455078	-3753.782470703125	436.9327392578125	-348.7788696289062	-2863.088134765625	322.7604675292969	-202.4569396972656	-2936.885009765625	302.8927001953125	-229.3406219482422	-3701.691162109375	400.7007141113281	-428.6883544921875	-2846.212890625	183.6905822753906	-205.7008361816406	-2659.346435546875	229.9496154785156	-263.5760498046875	-2884.989990234375	113.8068542480469	-251.292724609375	-2862.970703125	98.619384765625	-283.923828125	-2870.466552734375	92.63459777832033	-232.4216003417969	-3767.334228515625	432.5638732910156	-400.7092895507812
